<svg viewBox="0 0 681.79 184.5" xmlns="http://www.w3.org/2000/svg"><path d="m392.78 0h3.69v184.5h-3.69z" fill="#de473c"/><g fill="#fff"><path d="m60.74 31.53c-34.63 0-60.74 26.35-60.74 61.29v.18c0 33.6 26.61 59.92 60.59 59.92 34.22 0 61-26.66 61-60.68s-26.71-60.71-60.85-60.71m.26 101.36c-22.34 0-39.18-17.49-39.18-40.68v-.15c0-22.73 17.14-40.53 39-40.53 24.24 0 38.72 20.76 38.72 40.83 0 25.37-19.61 40.53-38.57 40.53"/><path d="m237.2 119.47a10.63 10.63 0 0 1 -1.72 9c-11.41 15.53-29.4 24.53-49.35 24.53-34 0-60.59-26.32-60.59-59.92v-.15c0-34.94 26.11-61.29 60.74-61.29 19.09 0 36.58 8.35 48 22.9a10.74 10.74 0 0 1 -8.49 17.33 10.54 10.54 0 0 1 -8.57-4.36 37 37 0 0 0 -30.8-15.87c-21.88 0-39 17.8-39 40.53v.15c0 23.19 16.85 40.68 39.18 40.68a37.31 37.31 0 0 0 31.3-16.68 10.89 10.89 0 0 1 9-4.84 10.44 10.44 0 0 1 4.43 1 10.68 10.68 0 0 1 5.89 7"/><path d="m359 139.43-10.08-35-4.3-14.94-2.62-9.18-4.78-16.63-.12-.36c-2.67-8-10.8-32.47-36.65-32.47s-34 24.45-36.65 32.48l-.15.47-21.77 75.62a10.29 10.29 0 0 0 1.71 9.11 11.74 11.74 0 0 0 9.37 4.57 11.38 11.38 0 0 0 11.11-8.1l20.3-74 .07-.2c2.16-6.82 6.17-15.88 16-15.88s13.84 9.06 16 15.85v.12l11.46 41.88 8.86 32.23a11.42 11.42 0 0 0 11.13 8.12 12 12 0 0 0 4.65-1 11.48 11.48 0 0 0 4.73-3.62 10.29 10.29 0 0 0 1.71-9.11"/><path d="m513.41 111.83h-24.53a1.23 1.23 0 0 1 -1.23-1.24v-38.78a1.88 1.88 0 0 0 -1.88-1.88h-.12a1.88 1.88 0 0 0 -1.87 1.88v39.38a4.58 4.58 0 0 0 4.57 4.58h25.06a1.88 1.88 0 0 0 1.87-1.88v-.18a1.88 1.88 0 0 0 -1.87-1.88"/><path d="m477.87 92.7v-.09l-.68-.59a4.68 4.68 0 0 0 -3-1.14h-17.51a2 2 0 0 0 -1.92 2.12 2 2 0 0 0 2 1.85h17.49a.58.58 0 0 1 .44.19.6.6 0 0 1 .19.45 1.06 1.06 0 0 1 0 .23 16.52 16.52 0 0 1 -.52 2.37 19 19 0 0 1 -35.54 2.55 18.11 18.11 0 0 1 -1.65-7.21c0-.13 0-.25 0-.41v-.33c0-.13 0-.25 0-.42a19 19 0 0 1 35.51-8.68 2 2 0 0 0 2.59.91l.23-.12a2 2 0 0 0 .72-2.51 5.86 5.86 0 0 0 -.39-.67 22.89 22.89 0 0 0 -42.58 10.93v.75s0 .5 0 .69a22.91 22.91 0 0 0 45.56 2.68c0-.09 0-.17 0-.35s0-.24 0-.4a4.52 4.52 0 0 0 -.9-2.76z"/><path d="m679.91 111.83h-24.52a1.24 1.24 0 0 1 -1.24-1.24v-38.78a1.88 1.88 0 0 0 -1.87-1.88h-.12a1.88 1.88 0 0 0 -1.88 1.88v39.38a4.58 4.58 0 0 0 4.58 4.58h25a1.88 1.88 0 0 0 1.88-1.88v-.18a1.88 1.88 0 0 0 -1.88-1.88"/><path d="m533.84 69.94a22.92 22.92 0 1 0 22.91 22.91 22.94 22.94 0 0 0 -22.91-22.91m0 42.05a19.14 19.14 0 1 1 19.16-19.14 19.17 19.17 0 0 1 -19.16 19.15"/><path d="m645.06 112.87c-2-6.91-8.51-29.73-9.62-33.07-2.34-7-6.67-10.52-12.86-10.52s-10.52 3.54-12.85 10.52c-1.28 3.82-9.67 33.23-9.75 33.51a1.93 1.93 0 0 0 1.32 2.38 1.89 1.89 0 0 0 .53.08 1.91 1.91 0 0 0 1.85-1.41c.05-.17 2.11-7.39 4.33-15.11h29.14c2.26 7.85 4.29 15 4.33 15.13a1.94 1.94 0 0 0 2.39 1.31 1.91 1.91 0 0 0 1.31-2.38zm-22.48-39.74c4.42 0 7.43 2.58 9.2 7.9.45 1.31 1.87 6.12 4.23 14.29h-26.86c2.36-8.17 3.78-13 4.22-14.29 1.79-5.32 4.8-7.9 9.21-7.9"/><path d="m597.74 82.35a12.38 12.38 0 0 0 -12.41-12.41h-19.82a4.33 4.33 0 0 0 -2.57.91 3.61 3.61 0 0 0 -.74.72 4.33 4.33 0 0 0 -1 2.7v37.16a4.21 4.21 0 0 0 .92 2.66 3.33 3.33 0 0 0 .72.73 4.21 4.21 0 0 0 2.69 1h19.75a12.41 12.41 0 0 0 5.31-1.19l.26-.06.14-.14a12.42 12.42 0 0 0 .9-21.53 12.36 12.36 0 0 0 5.8-10.5m-11.81 8.6h-20.88v-16.73a.55.55 0 0 1 .55-.55h19.75a8.63 8.63 0 0 1 .58 17.28m-20.88 3.74h20.9a8.64 8.64 0 0 1 -.6 17.25h-19.72a.56.56 0 0 1 -.55-.56z"/></g><path d="m366.57 60-24.57 20.32-18.7 15.48-20.42 16.89a4.2 4.2 0 0 1 -5 .06l-20.52-16-5.73 20.88 21.82 17.14a10.42 10.42 0 0 0 14.06-1.5l19.68-23.27 17.44-20.53 23.64-27.82a1.21 1.21 0 0 0 -1.7-1.7" fill="#de473c"/></svg>